#!OML:ASF F:\VICON\USERDATA\INSTALL\rory3\rory3.ASF
:FULLY-SPECIFIED
:DEGREES
1412
root -1.12869 16.7895 -3.60127 -19.8514 41.1336 -731.913
lowerback 26.0206 -1.51405 1.42412
upperback 8.45578 -0.925195 4.50759
thorax -4.98295 -0.351495 4.38539
lowerneck -18.27 -10.9976 -14.4862
upperneck 14.5802 -14.1317 14.5994
head 9.75866 -6.05344 5.28899
rclavicle 4.09993e-014 -9.34288e-015
rhumerus -47.0983 13.0214 -88.2312
rradius 54.4691
rwrist -2.15331
rhand -32.0258 7.43429
rfingers 7.12502
rthumb -5.27365 -22.4801
lclavicle 4.09993e-014 -9.34288e-015
lhumerus -35.902 -15.7791 95.2113
lradius 84.6475
lwrist -27.3175
lhand -41.2641 16.6657
lfingers 7.12502
lthumb -14.1861 46.1613
rfemur -43.9054 -27.2106 29.8571
rtibia 88.8843
rfoot -15.8701 6.20306
rtoes -11.6686
lfemur -77.5667 30.9863 -17.5586
ltibia 131.401
lfoot -13.8509 -4.69114
ltoes -10.3988
1413
root -1.10734 16.8289 -3.64449 -19.4299 40.7388 -731.604
lowerback 26.2659 -1.54949 1.6299
upperback 8.42043 -0.909955 4.48476
thorax -5.14657 -0.341584 4.24641
lowerneck -18.4216 -10.9646 -14.3625
upperneck 14.5977 -14.0713 14.4689
head 9.76065 -6.02389 5.22938
rclavicle 2.84262e-014 4.6118e-014
rhumerus -47.3179 12.9299 -88.4956
rradius 53.989
rwrist -2.30145
rhand -32.2723 7.55671
rfingers 7.12502
rthumb -5.51164 -22.3516
lclavicle 2.84262e-014 4.6118e-014
lhumerus -35.9484 -15.9434 95.2018
lradius 84.1185
lwrist -27.074
lhand -41.5152 16.3113
lfingers 7.12502
lthumb -14.4281 45.7898
rfemur -43.9729 -27.1462 29.6204
rtibia 88.5209
rfoot -15.6717 6.62892
rtoes -12.8059
lfemur -77.4276 30.3594 -17.9146
ltibia 131.001
lfoot -13.8952 -4.73844
ltoes -11.1764
1414
root -1.08671 16.8631 -3.69133 -18.9122 40.3727 -731.257
lowerback 26.394 -1.56955 1.70724
upperback 8.40525 -0.906212 4.54617
thorax -5.22581 -0.339886 4.27393
lowerneck -18.4598 -10.9598 -14.4727
upperneck 14.5171 -14.0185 14.4682
head 9.73919 -6.0056 5.25412
rclavicle 2.71838e-014 -1.86858e-014
rhumerus -47.527 13.018 -88.6337
rradius 53.5718
rwrist -1.99275
rhand -32.4801 7.81845
rfingers 7.12502
rthumb -5.71228 -22.0846
lclavicle 2.71838e-014 -1.86858e-014
lhumerus -35.6443 -15.6563 95.3299
lradius 84.1493
lwrist -26.9735
lhand -41.3835 15.4045
lfingers 7.12502
lthumb -14.3012 44.892
rfemur -44.1931 -27.0691 29.395
rtibia 88.1792
rfoot -15.5444 6.91357
rtoes -14.2479
lfemur -77.4267 29.5927 -18.3837
ltibia 130.6
lfoot -14.118 -5.07507
ltoes -12.2871
1415
root -1.05742 16.9064 -3.72665 -17.9939 39.4961 -730.679
lowerback 25.9806 -1.37394 1.6203
upperback 8.45673 -0.705139 4.58129
thorax -4.97854 -0.2485 4.28774
lowerneck -18.5797 -10.927 -14.5591
upperneck 14.4604 -13.925 14.4694
head 9.73257 -5.96286 5.28121
rclavicle 2.24627e-014 -2.50469e-014
rhumerus -47.6395 13.0114 -88.7001
rradius 53.3227
rwrist -1.90302
rhand -31.4996 8.0621
rfingers 7.12502
rthumb -4.76557 -21.8643
lclavicle 2.24627e-014 -2.50469e-014
lhumerus -35.4416 -15.8209 95.402
lradius 83.6934
lwrist -26.7478
lhand -41.8224 14.2478
lfingers 7.12502
lthumb -14.7241 43.7049
rfemur -44.6106 -26.3294 29.2925
rtibia 87.8119
rfoot -15.3963 7.1796
rtoes -15.0238
lfemur -77.4949 29.7409 -18.8515
ltibia 130.224
lfoot -14.5374 -5.47961
ltoes -13.4466
1416
root -1.03665 16.9525 -3.7702 -17.6742 38.8629 -730.614
lowerback 26.0311 -1.37519 1.85814
upperback 8.51635 -0.639562 4.69799
thorax -4.94219 -0.216777 4.26092
lowerneck -18.6978 -10.8636 -14.569
upperneck 14.3455 -13.794 14.4312
head 9.69006 -5.90341 5.28862
rclavicle 3.52843e-014 -2.34566e-014
rhumerus -47.7664 13.0576 -88.7929
rradius 53.2169
rwrist -1.66971
rhand -31.099 8.14063
rfingers 7.12502
rthumb -4.37877 -21.7941
lclavicle 3.52843e-014 -2.34566e-014
lhumerus -35.3948 -16.0228 95.4491
lradius 83.4935
lwrist -26.4017
lhand -42.1682 13.8723
lfingers 7.12502
lthumb -15.0572 43.3048
rfemur -44.6726 -25.8211 29.3812
rtibia 87.3734
rfoot -15.5019 7.32322
rtoes -15.8218
lfemur -77.4454 29.6205 -18.8402
ltibia 129.897
lfoot -14.5748 -5.76026
ltoes -13.2348
1417
root -1.02054 16.9839 -3.82406 -17.7276 38.6781 -730.624
lowerback 26.7038 -1.57692 2.16332
upperback 8.52758 -0.773996 4.77539
thorax -5.25021 -0.276789 4.23386
lowerneck -18.8308 -10.795 -14.4909
upperneck 14.3029 -13.6683 14.3083
head 9.66209 -5.84781 5.25116
rclavicle 2.43511e-014 -1.55052e-014
rhumerus -47.8769 13.2655 -88.9691
rradius 53.0367
rwrist -1.29903
rhand -31.8516 8.4647
rfingers 7.12502
rthumb -5.10548 -21.4538
lclavicle 2.43511e-014 -1.55052e-014
lhumerus -35.4069 -16.0112 95.4253
lradius 83.5304
lwrist -26.1906
lhand -42.1599 13.794
lfingers 7.12502
lthumb -15.0492 43.2271
rfemur -44.5113 -26.3353 29.226
rtibia 86.9848
rfoot -15.7304 7.62848
rtoes -17.744
lfemur -77.1982 28.7699 -18.7851
ltibia 129.64
lfoot -14.416 -5.73112
ltoes -13.0582
1418
root -0.992211 17.0108 -3.86695 -17.094 38.0115 -730.197
lowerback 26.697 -1.52931 2.21973
upperback 8.53069 -0.705378 4.76761
thorax -5.2484 -0.245346 4.17156
lowerneck -19.0227 -10.7423 -14.3979
upperneck 14.3374 -13.5764 14.2109
head 9.67811 -5.80048 5.21334
rclavicle -5.41688e-014 -3.49861e-014
rhumerus -47.915 13.5158 -89.2019
rradius 52.8317
rwrist -1.25336
rhand -32.4531 8.58074
rfingers 7.12502
rthumb -5.68617 -21.323
lclavicle -5.41688e-014 -3.49861e-014
lhumerus -35.282 -16.0517 95.3871
lradius 83.3514
lwrist -25.9847
lhand -42.2998 13.5761
lfingers 7.12502
lthumb -15.184 42.999
rfemur -44.8162 -25.8775 29.0436
rtibia 86.6554
rfoot -15.7828 7.76472
rtoes -18.5411
lfemur -77.3267 28.6371 -19.1203
ltibia 129.423
lfoot -14.4041 -5.69207
ltoes -14.2344
1419
root -0.966707 17.0533 -3.91019 -16.6167 37.4211 -729.78
lowerback 26.8102 -1.50864 2.2674
upperback 8.54678 -0.666048 4.75219
thorax -5.28833 -0.227161 4.11847
lowerneck -19.0999 -10.6862 -14.3007
upperneck 14.3035 -13.4803 14.0757
head 9.64587 -5.7611 5.16479
rclavicle -1.49089e-014 4.77083e-014
rhumerus -48.0346 13.7479 -89.5187
rradius 52.6523
rwrist -1.33096
rhand -33.0906 8.22879
rfingers 7.12502
rthumb -6.30166 -21.6575
lclavicle -1.49089e-014 4.77083e-014
lhumerus -35.2018 -16.2159 95.372
lradius 83.236
lwrist -25.73
lhand -42.5865 13.2958
lfingers 7.12502
lthumb -15.4601 42.6975
rfemur -44.8745 -25.5449 28.7628
rtibia 86.263
rfoot -15.6735 7.95849
rtoes -19.2954
lfemur -77.1109 28.4027 -19.4665
ltibia 129.038
lfoot -14.3695 -5.64849
ltoes -14.953
1420
root -0.942177 17.0976 -3.95599 -16.1748 36.8167 -729.386
lowerback 26.9642 -1.51806 2.28226
upperback 8.54717 -0.668167 4.77042
thorax -5.3619 -0.229624 4.13626
lowerneck -19.1323 -10.5893 -14.2634
upperneck 14.3093 -13.313 13.9049
head 9.61002 -5.69712 5.12807
rclavicle -4.09496e-014 8.74653e-015
rhumerus -48.2353 14.157 -89.8647
rradius 52.5581
rwrist -1.70804
rhand -33.885 8.0935
rfingers 7.12502
rthumb -7.06853 -21.7685
lclavicle -4.09496e-014 8.74653e-015
lhumerus -35.2595 -16.1972 95.3935
lradius 83.2457
lwrist -25.8039
lhand -42.9202 13.623
lfingers 7.12502
lthumb -15.7815 42.9997
rfemur -44.9194 -25.1878 28.5087
rtibia 85.8468
rfoot -15.5028 8.19155
rtoes -17.7815
lfemur -76.8204 28.211 -19.8031
ltibia 128.611
lfoot -14.3451 -5.6519
ltoes -15.0894
